<svg xmlns="http://www.w3.org/2000/svg" xmlns:xlink="http://www.w3.org/1999/xlink" style="width: 0px; height: 0px; visibility: hidden; position: absolute; display: block;" id="svg-icon-sprite">
  <symbol id="facebook" viewBox="0 0 24 24">
    <path d="M18.0117 13.5L18.6783 9.15656H14.5106V6.33797C14.5106 5.14969 15.0928 3.99141 16.9594 3.99141H18.8541V0.293437C18.8541 0.293437 17.1347 0 15.4908 0C12.0586 0 9.81516 2.08031 9.81516 5.84625V9.15656H6V13.5H9.81516V24H14.5106V13.5H18.0117Z" fill="#212121"></path>
  </symbol>
  <symbol id="google" viewBox="0 0 24 24">
    <path d="M22.6452 12.2573C22.6452 18.5335 18.3472 23 12 23C5.91452 23 1 18.0855 1 12C1 5.91452 5.91452 1 12 1C14.9629 1 17.4556 2.08669 19.3762 3.87863L16.3823 6.75726C12.4657 2.97823 5.18266 5.81694 5.18266 12C5.18266 15.8367 8.24758 18.946 12 18.946C16.3556 18.946 17.9879 15.8234 18.2452 14.2044H12V10.421H22.4722C22.5742 10.9843 22.6452 11.5254 22.6452 12.2573Z" fill="#212121"></path>
  </symbol>
  <symbol id="instagram" viewBox="0 0 24 24">
    <path d="M12.0049 6.35948C8.88274 6.35948 6.36439 8.87783 6.36439 12C6.36439 15.1222 8.88274 17.6405 12.0049 17.6405C15.1271 17.6405 17.6454 15.1222 17.6454 12C17.6454 8.87783 15.1271 6.35948 12.0049 6.35948ZM12.0049 15.6671C9.98728 15.6671 8.33783 14.0225 8.33783 12C8.33783 9.97746 9.98237 8.33292 12.0049 8.33292C14.0274 8.33292 15.672 9.97746 15.672 12C15.672 14.0225 14.0225 15.6671 12.0049 15.6671ZM19.1918 6.12875C19.1918 6.8602 18.6027 7.44438 17.8762 7.44438C17.1447 7.44438 16.5605 6.85529 16.5605 6.12875C16.5605 5.40221 17.1496 4.81312 17.8762 4.81312C18.6027 4.81312 19.1918 5.40221 19.1918 6.12875ZM22.9276 7.46402C22.8441 5.70166 22.4416 4.14058 21.1505 2.8544C19.8643 1.56822 18.3032 1.16568 16.5409 1.07732C14.7245 0.974227 9.28037 0.974227 7.46402 1.07732C5.70657 1.16077 4.14549 1.56332 2.8544 2.84949C1.56332 4.13567 1.16568 5.69675 1.07732 7.45911C0.974227 9.27547 0.974227 14.7196 1.07732 16.536C1.16077 18.2983 1.56332 19.8594 2.8544 21.1456C4.14549 22.4318 5.70166 22.8343 7.46402 22.9227C9.28037 23.0258 14.7245 23.0258 16.5409 22.9227C18.3032 22.8392 19.8643 22.4367 21.1505 21.1456C22.4367 19.8594 22.8392 18.2983 22.9276 16.536C23.0307 14.7196 23.0307 9.28037 22.9276 7.46402ZM20.5811 18.4849C20.1981 19.4471 19.4569 20.1883 18.4898 20.5761C17.0416 21.1505 13.6053 21.018 12.0049 21.018C10.4046 21.018 6.96329 21.1456 5.52003 20.5761C4.55785 20.1932 3.81658 19.452 3.42876 18.4849C2.8544 17.0367 2.98695 13.6004 2.98695 12C2.98695 10.3996 2.85931 6.95838 3.42876 5.51512C3.81167 4.55294 4.55294 3.81167 5.52003 3.42385C6.9682 2.84949 10.4046 2.98204 12.0049 2.98204C13.6053 2.98204 17.0465 2.8544 18.4898 3.42385C19.452 3.80676 20.1932 4.54803 20.5811 5.51512C21.1554 6.96329 21.0229 10.3996 21.0229 12C21.0229 13.6004 21.1554 17.0416 20.5811 18.4849Z" fill="#212121"></path>
  </symbol>
  <symbol id="linkedin" viewBox="0 0 24 24">
    <path d="M5.89648 22.8745H1.36133V8.27002H5.89648V22.8745ZM3.62646 6.27783C2.17627 6.27783 1 5.07666 1 3.62646C1 2.92988 1.27672 2.26183 1.76927 1.76927C2.26183 1.27672 2.92988 1 3.62646 1C4.32305 1 4.9911 1.27672 5.48366 1.76927C5.97621 2.26183 6.25293 2.92988 6.25293 3.62646C6.25293 5.07666 5.07617 6.27783 3.62646 6.27783ZM22.8701 22.8745H18.3447V15.7651C18.3447 14.0708 18.3105 11.8979 15.9868 11.8979C13.6289 11.8979 13.2676 13.7388 13.2676 15.6431V22.8745H8.73731V8.27002H13.0869V10.2622H13.1504C13.7559 9.11475 15.2349 7.90381 17.4414 7.90381C22.0312 7.90381 22.875 10.9263 22.875 14.8521V22.8745H22.8701Z" fill="#212121"></path>
  </symbol>
  <symbol id="pinterest" viewBox="0 0 20 24">
    <path d="M10.5771 0C5.64348 0 0.767578 3.28907 0.767578 8.61217C0.767578 11.9974 2.67178 13.9208 3.82584 13.9208C4.30188 13.9208 4.57597 12.5937 4.57597 12.2186C4.57597 11.7714 3.43634 10.8193 3.43634 8.95839C3.43634 5.09229 6.37919 2.3514 10.1876 2.3514C13.4622 2.3514 15.8858 4.21232 15.8858 7.63122C15.8858 10.1846 14.8615 14.9739 11.5436 14.9739C10.3463 14.9739 9.32204 14.1084 9.32204 12.8678C9.32204 11.0501 10.5915 9.29018 10.5915 7.41483C10.5915 4.23155 6.07625 4.80858 6.07625 8.65545C6.07625 9.46329 6.17723 10.3577 6.53788 11.0934C5.87429 13.9497 4.51827 18.2053 4.51827 21.1481C4.51827 22.057 4.6481 22.9514 4.73466 23.8602C4.89815 24.0429 4.8164 24.0237 5.06645 23.9323C7.48997 20.6144 7.40342 19.9652 8.49978 15.6231C9.09123 16.7483 10.6204 17.3542 11.8321 17.3542C16.9388 17.3542 19.2325 12.3773 19.2325 7.89088C19.2325 3.11596 15.1068 0 10.5771 0Z" fill="#212121"></path>
  </symbol>
  <symbol id="snapchat" viewBox="0 0 24 24">
    <path d="M23.4482 18.1396C23.2141 18.6857 22.2245 19.0869 20.4222 19.3667C20.3295 19.4919 20.2527 20.0265 20.1299 20.4429C20.0569 20.6929 19.8773 20.8413 19.5851 20.8413L19.5718 20.8411C19.1497 20.8411 18.7091 20.6469 17.8265 20.6469C16.6351 20.6469 16.2245 20.9183 15.2995 21.5717C14.3187 22.2652 13.3781 22.8638 11.974 22.8025C10.5524 22.9074 9.36746 22.043 8.70055 21.5715C7.77004 20.9137 7.36062 20.6469 6.17411 20.6469C5.3267 20.6469 4.7934 20.8589 4.42881 20.8589C4.06616 20.8589 3.9251 20.6378 3.87079 20.4529C3.74937 20.0401 3.67296 19.4977 3.57777 19.3689C2.64883 19.2247 0.55409 18.8593 0.500723 17.9247C0.494254 17.8072 0.531376 17.6915 0.604968 17.5997C0.67856 17.508 0.783441 17.4466 0.899493 17.4274C4.02528 16.9128 5.43317 13.7034 5.4917 13.5671C5.49503 13.5592 5.49867 13.5517 5.50235 13.544C5.66914 13.2054 5.70647 12.9219 5.61299 12.7016C5.38614 12.1672 4.40586 11.9755 3.99343 11.8123C2.92811 11.3916 2.77987 10.9081 2.8429 10.5768C2.95237 10.0002 3.81882 9.64532 4.3254 9.8826C4.72606 10.0704 5.08202 10.1655 5.38317 10.1655C5.60877 10.1655 5.75207 10.1114 5.83059 10.0679C5.73882 8.45364 5.5116 6.14673 6.08606 4.85842C7.6032 1.45704 10.8188 1.19272 11.7676 1.19272C11.81 1.19272 12.1783 1.18872 12.2218 1.18872C14.5644 1.18872 16.8152 2.39172 17.9144 4.85626C18.4884 6.14327 18.2625 8.44066 18.1702 10.0676C18.2413 10.1068 18.3659 10.1548 18.5565 10.1637C18.8439 10.1508 19.1771 10.0564 19.5479 9.8826C19.8212 9.75475 20.195 9.77205 20.4679 9.8852L20.4692 9.88565C20.8949 10.0377 21.1627 10.3445 21.1695 10.6884C21.1777 11.1263 20.7866 11.5044 20.007 11.8123C19.9118 11.8498 19.7961 11.8866 19.673 11.9257C19.2329 12.0652 18.568 12.2763 18.3876 12.7015C18.2942 12.9218 18.3311 13.2051 18.4981 13.5437C18.502 13.5513 18.5055 13.5591 18.5088 13.5668C18.5672 13.703 19.9739 16.9117 23.1011 17.4272C23.3899 17.4747 23.6026 17.781 23.4482 18.1396Z" fill="#212121"></path>
  </symbol>
  <symbol id="telegram" viewBox="0 0 24 24">
    <path d="M22.8107 4.66995L19.5099 20.2364C19.2609 21.335 18.6115 21.6084 17.6887 21.0908L12.6594 17.3848L10.2326 19.7188C9.96405 19.9873 9.73944 20.2119 9.22186 20.2119L9.58319 15.0899L18.9045 6.66702C19.3097 6.30569 18.8166 6.1055 18.2746 6.46683L6.75116 13.7227L1.79022 12.17C0.711117 11.833 0.691585 11.0908 2.01483 10.5733L21.4191 3.09769C22.3176 2.76077 23.1037 3.29788 22.8107 4.66995Z" fill="#212121"></path>
  </symbol>
  <symbol id="tiktok" viewBox="0 0 21 24">
    <path d="M21 9.84239C18.9357 9.84733 16.9221 9.20355 15.2435 8.00201V16.3819C15.2429 17.934 14.7685 19.4489 13.8838 20.7241C12.999 21.9992 11.746 22.9739 10.2923 23.5177C8.83867 24.0615 7.25362 24.1486 5.74914 23.7673C4.24466 23.3859 2.89245 22.5544 1.87333 21.3838C0.854205 20.2132 0.21674 18.7594 0.0461722 17.2168C-0.124395 15.6741 0.180066 14.1161 0.918844 12.7512C1.65762 11.3862 2.7955 10.2794 4.18034 9.57858C5.56517 8.87779 7.13095 8.61648 8.6683 8.8296V13.0444C7.96481 12.8231 7.20938 12.8298 6.5099 13.0635C5.81041 13.2971 5.20265 13.7458 4.7734 14.3455C4.34415 14.9452 4.11536 15.6652 4.1197 16.4026C4.12404 17.1401 4.3613 17.8573 4.79759 18.4519C5.23387 19.0465 5.84688 19.488 6.54906 19.7134C7.25125 19.9388 8.0067 19.9366 8.70754 19.707C9.40838 19.4775 10.0188 19.0323 10.4515 18.4352C10.8843 17.8381 11.1173 17.1194 11.1173 16.3819V0H15.2435C15.2406 0.348448 15.2698 0.696421 15.3307 1.03952C15.4741 1.80544 15.7722 2.53405 16.2068 3.1808C16.6415 3.82755 17.2035 4.37883 17.8585 4.80093C18.7903 5.41709 19.8829 5.7455 21 5.74526V9.84239Z" fill="#212121"></path>
  </symbol>
  <symbol id="twitter" viewBox="0 0 24 24">
    <path d="M21.5331 6.85786C21.5483 7.07105 21.5483 7.28429 21.5483 7.49747C21.5483 14 16.5991 21.4924 7.55333 21.4924C4.7665 21.4924 2.17768 20.6853 0 19.2843C0.395955 19.33 0.776628 19.3452 1.18782 19.3452C3.48728 19.3452 5.60407 18.5686 7.29444 17.2437C5.13199 17.198 3.31979 15.7818 2.69542 13.8325C3.00001 13.8782 3.30456 13.9086 3.62439 13.9086C4.066 13.9086 4.50766 13.8477 4.9188 13.7412C2.66499 13.2843 0.974582 11.3046 0.974582 8.91371V8.85282C1.62938 9.21831 2.39087 9.44673 3.19792 9.47715C1.87304 8.59388 1.00505 7.08629 1.00505 5.38069C1.00505 4.46699 1.24866 3.62943 1.67508 2.89846C4.09642 5.88323 7.73605 7.83245 11.8172 8.04568C11.7411 7.68019 11.6954 7.29952 11.6954 6.9188C11.6954 4.2081 13.8883 2 16.6142 2C18.0304 2 19.3096 2.59391 20.2081 3.5533C21.3198 3.34011 22.3858 2.92893 23.33 2.36549C22.9644 3.50765 22.1878 4.46704 21.1675 5.07614C22.1574 4.96959 23.1168 4.69542 24 4.31474C23.3301 5.28933 22.4924 6.15731 21.5331 6.85786Z" fill="#212121"></path>
  </symbol>
  <symbol id="wechat" viewBox="0 0 24 20">
    <path d="M16.0498 6.31663C16.3165 6.31663 16.5748 6.32913 16.8332 6.36246C16.1415 3.09579 12.6373 0.666626 8.654 0.666626C4.18734 0.666626 0.541504 3.69996 0.541504 7.55829C0.541504 9.78329 1.76234 11.6208 3.78734 13.0416L2.98317 15.4833L5.8165 14.0625C6.83317 14.2625 7.6415 14.4666 8.65817 14.4666C8.9165 14.4666 9.16234 14.4541 9.42067 14.4333C9.254 13.8958 9.16234 13.325 9.16234 12.7333C9.15817 9.19579 12.1998 6.31663 16.0498 6.31663ZM11.6957 4.11246C12.2998 4.11246 12.704 4.51663 12.704 5.12913C12.704 5.73329 12.2998 6.13746 11.6957 6.13746C11.079 6.13746 10.4748 5.73329 10.4748 5.12913C10.479 4.51663 11.0832 4.11246 11.6957 4.11246ZM6.01234 6.13746C5.40817 6.13746 4.7915 5.73329 4.7915 5.12913C4.7915 4.51246 5.40817 4.11246 6.01234 4.11246C6.629 4.11246 7.029 4.51663 7.029 5.12913C7.029 5.73746 6.629 6.13746 6.01234 6.13746ZM23.4582 12.6416C23.4582 9.39579 20.2123 6.75413 16.5665 6.75413C12.704 6.75413 9.67484 9.39579 9.67484 12.6416C9.67484 15.8875 12.7082 18.5291 16.5665 18.5291C17.3707 18.5291 18.1873 18.3166 19.0082 18.1166L21.2332 19.3375L20.6165 17.3125C22.2498 16.0875 23.4582 14.4666 23.4582 12.6416ZM14.329 11.6208C13.9248 11.6208 13.5248 11.2166 13.5248 10.8041C13.5248 10.4 13.929 9.99996 14.329 9.99996C14.9457 9.99996 15.3457 10.4041 15.3457 10.8041C15.3457 11.2208 14.9415 11.6208 14.329 11.6208ZM18.7915 11.6208C18.3873 11.6208 17.9873 11.2166 17.9873 10.8041C17.9873 10.4 18.3915 9.99996 18.7915 9.99996C19.3957 9.99996 19.8082 10.4041 19.8082 10.8041C19.8123 11.2208 19.3957 11.6208 18.7915 11.6208Z" fill="black"></path>
  </symbol>
  <symbol id="whatsapp" viewBox="0 0 22 22">
    <path d="M18.3547 3.55156C16.3906 1.58281 13.775 0.5 10.9953 0.5C5.25781 0.5 0.589062 5.16875 0.589062 10.9062C0.589062 12.7391 1.06719 14.5297 1.97656 16.1094L0.5 21.5L6.01719 20.0516C7.53594 20.8813 9.24688 21.3172 10.9906 21.3172H10.9953C16.7281 21.3172 21.5 16.6484 21.5 10.9109C21.5 8.13125 20.3187 5.52031 18.3547 3.55156ZM10.9953 19.5641C9.43906 19.5641 7.91562 19.1469 6.58906 18.3594L6.275 18.1719L3.00313 19.0297L3.875 15.8375L3.66875 15.5094C2.80156 14.1313 2.34688 12.5422 2.34688 10.9062C2.34688 6.13906 6.22812 2.25781 11 2.25781C13.3109 2.25781 15.4812 3.15781 17.1125 4.79375C18.7437 6.42969 19.7469 8.6 19.7422 10.9109C19.7422 15.6828 15.7625 19.5641 10.9953 19.5641ZM15.7391 13.0859C15.4813 12.9547 14.2016 12.3266 13.9625 12.2422C13.7234 12.1531 13.55 12.1109 13.3766 12.3734C13.2031 12.6359 12.7063 13.2172 12.5516 13.3953C12.4016 13.5688 12.2469 13.5922 11.9891 13.4609C10.4609 12.6969 9.45781 12.0969 8.45 10.3672C8.18281 9.90781 8.71719 9.94062 9.21406 8.94687C9.29844 8.77344 9.25625 8.62344 9.19062 8.49219C9.125 8.36094 8.60469 7.08125 8.38906 6.56094C8.17813 6.05469 7.9625 6.125 7.80313 6.11563C7.65313 6.10625 7.47969 6.10625 7.30625 6.10625C7.13281 6.10625 6.85156 6.17188 6.6125 6.42969C6.37344 6.69219 5.70312 7.32031 5.70312 8.6C5.70312 9.87969 6.63594 11.1172 6.7625 11.2906C6.89375 11.4641 8.59531 14.0891 11.2062 15.2188C12.8562 15.9312 13.5031 15.9922 14.3281 15.8703C14.8297 15.7953 15.8656 15.2422 16.0812 14.6328C16.2969 14.0234 16.2969 13.5031 16.2313 13.3953C16.1703 13.2781 15.9969 13.2125 15.7391 13.0859Z" fill="black"></path>
  </symbol>
  <symbol id="wordpress" viewBox="0 0 24 24">
    <path d="M12 0C5.38548 0 0 5.38064 0 12C0 18.6145 5.38548 24 12 24C18.6145 24 24 18.6145 24 12C24 5.38064 18.6145 0 12 0ZM1.20968 12C1.20968 10.4371 1.54355 8.95161 2.14355 7.61129L7.29193 21.7113C3.69194 19.9597 1.20968 16.2677 1.20968 12ZM12 22.7903C10.9403 22.7903 9.91935 22.6355 8.95161 22.35L12.1887 12.9435L15.5032 22.0306C15.5274 22.0839 15.5516 22.1323 15.5806 22.1806C14.4629 22.5726 13.2581 22.7903 12 22.7903ZM13.4855 6.94355C14.1339 6.90968 14.7194 6.84194 14.7194 6.84194C15.3 6.77419 15.2323 5.91774 14.6516 5.95161C14.6516 5.95161 12.9048 6.0871 11.7774 6.0871C10.7177 6.0871 8.9371 5.95161 8.9371 5.95161C8.35645 5.91774 8.28871 6.80806 8.86935 6.84194C8.86935 6.84194 9.42097 6.90968 10.0016 6.94355L11.6806 11.55L9.31936 18.629L5.39032 6.94355C6.03871 6.90968 6.62419 6.84194 6.62419 6.84194C7.20484 6.77419 7.1371 5.91774 6.55645 5.95161C6.55645 5.95161 4.80968 6.0871 3.68226 6.0871C3.47903 6.0871 3.24194 6.08226 2.98548 6.07258C4.91613 3.14516 8.23065 1.20968 12 1.20968C14.8065 1.20968 17.3661 2.28387 19.2871 4.04032C19.2387 4.03548 19.1952 4.03065 19.1468 4.03065C18.0871 4.03065 17.3371 4.95484 17.3371 5.94677C17.3371 6.8371 17.85 7.5871 18.3968 8.47742C18.8081 9.19355 19.2871 10.1177 19.2871 11.4532C19.2871 12.3774 18.9339 13.4468 18.4645 14.9419L17.3903 18.5371L13.4855 6.94355ZM17.4242 21.3242L20.7194 11.7968C21.3339 10.2581 21.5419 9.02903 21.5419 7.93064C21.5419 7.53387 21.5177 7.16613 21.4694 6.82258C22.3113 8.36129 22.7903 10.1226 22.7903 12C22.7903 15.9823 20.6323 19.4565 17.4242 21.3242Z" fill="#212121"></path>
  </symbol>
  <symbol id="x" viewBox="0 0 300 300.251">
    <path d="M178.57 127.15 290.27 0h-26.46l-97.03 110.38L89.34 0H0l117.13 166.93L0 300.25h26.46l102.4-116.59 81.8 116.59h89.34M36.01 19.54H76.66l187.13 262.13h-40.66"></path>
  </symbol>
  <symbol id="youtube" viewBox="0 0 24 24">
    <path d="M23.0194 6.53035C22.7549 5.53435 21.9755 4.74993 20.9859 4.48372C19.1923 4 12 4 12 4C12 4 4.80774 4 3.01405 4.48372C2.02449 4.74997 1.24513 5.53435 0.980607 6.53035C0.5 8.33566 0.5 12.1023 0.5 12.1023C0.5 12.1023 0.5 15.8689 0.980607 17.6742C1.24513 18.6702 2.02449 19.4219 3.01405 19.6881C4.80774 20.1719 12 20.1719 12 20.1719C12 20.1719 19.1923 20.1719 20.9859 19.6881C21.9755 19.4219 22.7549 18.6702 23.0194 17.6742C23.5 15.8689 23.5 12.1023 23.5 12.1023C23.5 12.1023 23.5 8.33566 23.0194 6.53035ZM9.64771 15.5221V8.68247L15.659 12.1024L9.64771 15.5221Z" fill="#212121"></path>
  </symbol>
</svg>